<mxfile host="Electron" modified="2024-04-26T13:20:23.287Z" agent="Mozilla/5.0 (Windows NT 10.0; Win64; x64) AppleWebKit/537.36 (KHTML, like Gecko) draw.io/24.2.5 Chrome/120.0.6099.109 Electron/28.1.0 Safari/537.36" etag="QMR66Wx9jyRJGCToaChR" version="24.2.5" type="device">
  <diagram name="Page-1" id="o65vilw3Pug-pLH16Nbn">
    <mxGraphModel dx="1430" dy="825" grid="1" gridSize="10" guides="1" tooltips="1" connect="1" arrows="1" fold="1" page="1" pageScale="1" pageWidth="850" pageHeight="1100" math="0" shadow="0">
      <root>
        <mxCell id="0" />
        <mxCell id="1" parent="0" />
        <mxCell id="uLF2nfVqeSq94Ol26W6c-39" style="edgeStyle=orthogonalEdgeStyle;rounded=0;orthogonalLoop=1;jettySize=auto;html=1;exitX=0.25;exitY=1;exitDx=0;exitDy=0;entryX=0.25;entryY=0;entryDx=0;entryDy=0;" parent="1" source="yqtdJIzbsoDZmMNoD9rc-11" target="uLF2nfVqeSq94Ol26W6c-15" edge="1">
          <mxGeometry relative="1" as="geometry" />
        </mxCell>
        <mxCell id="uLF2nfVqeSq94Ol26W6c-41" style="edgeStyle=orthogonalEdgeStyle;rounded=0;orthogonalLoop=1;jettySize=auto;html=1;" parent="1" source="yqtdJIzbsoDZmMNoD9rc-11" target="yqtdJIzbsoDZmMNoD9rc-19" edge="1">
          <mxGeometry relative="1" as="geometry" />
        </mxCell>
        <mxCell id="yqtdJIzbsoDZmMNoD9rc-11" value="&lt;font style=&quot;font-size: 20px;&quot;&gt;GenAI Model&lt;/font&gt;" style="rounded=1;whiteSpace=wrap;html=1;fillColor=#dae8fc;strokeColor=#6c8ebf;" parent="1" vertex="1">
          <mxGeometry x="439" y="200" width="160" height="170" as="geometry" />
        </mxCell>
        <mxCell id="yqtdJIzbsoDZmMNoD9rc-19" value="&lt;b&gt;&lt;font style=&quot;font-size: 24px;&quot;&gt;Output&lt;/font&gt;&lt;/b&gt;" style="text;html=1;align=center;verticalAlign=middle;whiteSpace=wrap;rounded=0;" parent="1" vertex="1">
          <mxGeometry x="639" y="265" width="90" height="40" as="geometry" />
        </mxCell>
        <mxCell id="uLF2nfVqeSq94Ol26W6c-9" value="" style="group" parent="1" vertex="1" connectable="0">
          <mxGeometry x="250" y="110" width="120" height="80" as="geometry" />
        </mxCell>
        <mxCell id="uLF2nfVqeSq94Ol26W6c-7" value="&lt;font style=&quot;font-size: 20px;&quot;&gt;Text&lt;/font&gt;&lt;div&gt;&lt;span style=&quot;font-size: 20px; background-color: initial;&quot;&gt;Encoder&lt;/span&gt;&lt;/div&gt;" style="rounded=1;whiteSpace=wrap;html=1;fillColor=#d5e8d4;strokeColor=#82b366;" parent="uLF2nfVqeSq94Ol26W6c-9" vertex="1">
          <mxGeometry width="120" height="80" as="geometry" />
        </mxCell>
        <mxCell id="uLF2nfVqeSq94Ol26W6c-2" value="" style="shape=mxgraph.signs.nature.snowflake;html=1;pointerEvents=1;fillColor=#000000;strokeColor=none;verticalLabelPosition=bottom;verticalAlign=top;align=center;" parent="uLF2nfVqeSq94Ol26W6c-9" vertex="1">
          <mxGeometry x="90" y="10" width="20" height="20" as="geometry" />
        </mxCell>
        <mxCell id="uLF2nfVqeSq94Ol26W6c-11" value="" style="group" parent="1" vertex="1" connectable="0">
          <mxGeometry x="250" y="290" width="120" height="80" as="geometry" />
        </mxCell>
        <mxCell id="yqtdJIzbsoDZmMNoD9rc-13" value="&lt;font style=&quot;font-size: 20px;&quot;&gt;Audio&lt;/font&gt;&lt;div&gt;&lt;span style=&quot;font-size: 20px; background-color: initial;&quot;&gt;Encoder&lt;/span&gt;&lt;/div&gt;" style="rounded=1;whiteSpace=wrap;html=1;fillColor=#f8cecc;strokeColor=#b85450;" parent="uLF2nfVqeSq94Ol26W6c-11" vertex="1">
          <mxGeometry width="120" height="80" as="geometry" />
        </mxCell>
        <mxCell id="uLF2nfVqeSq94Ol26W6c-10" value="" style="shape=mxgraph.signs.nature.snowflake;html=1;pointerEvents=1;fillColor=#000000;strokeColor=none;verticalLabelPosition=bottom;verticalAlign=top;align=center;" parent="uLF2nfVqeSq94Ol26W6c-11" vertex="1">
          <mxGeometry x="90" y="10" width="20" height="20" as="geometry" />
        </mxCell>
        <mxCell id="uLF2nfVqeSq94Ol26W6c-12" value="" style="group" parent="1" vertex="1" connectable="0">
          <mxGeometry x="250" y="200" width="120" height="80" as="geometry" />
        </mxCell>
        <mxCell id="uLF2nfVqeSq94Ol26W6c-5" value="&lt;font style=&quot;font-size: 20px;&quot;&gt;Image&lt;/font&gt;&lt;div&gt;&lt;span style=&quot;font-size: 20px; background-color: initial;&quot;&gt;Encoder&lt;/span&gt;&lt;/div&gt;" style="rounded=1;whiteSpace=wrap;html=1;fillColor=#fff2cc;strokeColor=#d6b656;" parent="uLF2nfVqeSq94Ol26W6c-12" vertex="1">
          <mxGeometry width="120" height="80" as="geometry" />
        </mxCell>
        <mxCell id="uLF2nfVqeSq94Ol26W6c-8" value="" style="shape=mxgraph.signs.nature.snowflake;html=1;pointerEvents=1;fillColor=#000000;strokeColor=none;verticalLabelPosition=bottom;verticalAlign=top;align=center;" parent="uLF2nfVqeSq94Ol26W6c-12" vertex="1">
          <mxGeometry x="90" y="10" width="20" height="20" as="geometry" />
        </mxCell>
        <mxCell id="uLF2nfVqeSq94Ol26W6c-14" value="" style="group" parent="1" vertex="1" connectable="0">
          <mxGeometry x="250" y="380" width="120" height="80" as="geometry" />
        </mxCell>
        <mxCell id="uLF2nfVqeSq94Ol26W6c-6" value="&lt;span style=&quot;font-size: 20px;&quot;&gt;Video&lt;/span&gt;&lt;br&gt;&lt;div&gt;&lt;span style=&quot;font-size: 20px; background-color: initial;&quot;&gt;Encoder&lt;/span&gt;&lt;/div&gt;" style="rounded=1;whiteSpace=wrap;html=1;fillColor=#ffe6cc;strokeColor=#d79b00;" parent="uLF2nfVqeSq94Ol26W6c-14" vertex="1">
          <mxGeometry width="120" height="80" as="geometry" />
        </mxCell>
        <mxCell id="uLF2nfVqeSq94Ol26W6c-13" value="" style="shape=mxgraph.signs.nature.snowflake;html=1;pointerEvents=1;fillColor=#000000;strokeColor=none;verticalLabelPosition=bottom;verticalAlign=top;align=center;" parent="uLF2nfVqeSq94Ol26W6c-14" vertex="1">
          <mxGeometry x="90" y="10" width="20" height="20" as="geometry" />
        </mxCell>
        <mxCell id="uLF2nfVqeSq94Ol26W6c-40" style="edgeStyle=orthogonalEdgeStyle;rounded=0;orthogonalLoop=1;jettySize=auto;html=1;exitX=0.75;exitY=0;exitDx=0;exitDy=0;entryX=0.75;entryY=1;entryDx=0;entryDy=0;" parent="1" source="uLF2nfVqeSq94Ol26W6c-15" target="yqtdJIzbsoDZmMNoD9rc-11" edge="1">
          <mxGeometry relative="1" as="geometry" />
        </mxCell>
        <mxCell id="uLF2nfVqeSq94Ol26W6c-15" value="&lt;font style=&quot;font-size: 20px;&quot;&gt;Retrieval/Storage&lt;/font&gt;" style="rounded=1;whiteSpace=wrap;html=1;fillColor=#e1d5e7;strokeColor=#9673a6;" parent="1" vertex="1">
          <mxGeometry x="439" y="400" width="160" height="60" as="geometry" />
        </mxCell>
        <mxCell id="uLF2nfVqeSq94Ol26W6c-28" style="edgeStyle=orthogonalEdgeStyle;rounded=0;orthogonalLoop=1;jettySize=auto;html=1;entryX=0;entryY=0.5;entryDx=0;entryDy=0;" parent="1" source="uLF2nfVqeSq94Ol26W6c-16" target="uLF2nfVqeSq94Ol26W6c-7" edge="1">
          <mxGeometry relative="1" as="geometry">
            <Array as="points">
              <mxPoint x="220" y="285" />
              <mxPoint x="220" y="150" />
            </Array>
          </mxGeometry>
        </mxCell>
        <mxCell id="uLF2nfVqeSq94Ol26W6c-29" style="edgeStyle=orthogonalEdgeStyle;rounded=0;orthogonalLoop=1;jettySize=auto;html=1;entryX=0;entryY=0.5;entryDx=0;entryDy=0;" parent="1" source="uLF2nfVqeSq94Ol26W6c-16" target="uLF2nfVqeSq94Ol26W6c-5" edge="1">
          <mxGeometry relative="1" as="geometry">
            <Array as="points">
              <mxPoint x="220" y="285" />
              <mxPoint x="220" y="240" />
            </Array>
          </mxGeometry>
        </mxCell>
        <mxCell id="uLF2nfVqeSq94Ol26W6c-30" style="edgeStyle=orthogonalEdgeStyle;rounded=0;orthogonalLoop=1;jettySize=auto;html=1;entryX=0;entryY=0.5;entryDx=0;entryDy=0;" parent="1" source="uLF2nfVqeSq94Ol26W6c-16" target="yqtdJIzbsoDZmMNoD9rc-13" edge="1">
          <mxGeometry relative="1" as="geometry">
            <Array as="points">
              <mxPoint x="220" y="285" />
              <mxPoint x="220" y="330" />
            </Array>
          </mxGeometry>
        </mxCell>
        <mxCell id="uLF2nfVqeSq94Ol26W6c-31" style="edgeStyle=orthogonalEdgeStyle;rounded=0;orthogonalLoop=1;jettySize=auto;html=1;entryX=0;entryY=0.5;entryDx=0;entryDy=0;" parent="1" source="uLF2nfVqeSq94Ol26W6c-16" target="uLF2nfVqeSq94Ol26W6c-6" edge="1">
          <mxGeometry relative="1" as="geometry">
            <Array as="points">
              <mxPoint x="220" y="285" />
              <mxPoint x="220" y="420" />
            </Array>
          </mxGeometry>
        </mxCell>
        <mxCell id="LQrkkmKYjRuDrT0gZkUL-1" style="edgeStyle=orthogonalEdgeStyle;rounded=0;orthogonalLoop=1;jettySize=auto;html=1;entryX=0;entryY=0.5;entryDx=0;entryDy=0;" edge="1" parent="1" source="uLF2nfVqeSq94Ol26W6c-16" target="uLF2nfVqeSq94Ol26W6c-15">
          <mxGeometry relative="1" as="geometry">
            <Array as="points">
              <mxPoint x="220" y="285" />
              <mxPoint x="220" y="470" />
              <mxPoint x="400" y="470" />
              <mxPoint x="400" y="430" />
            </Array>
          </mxGeometry>
        </mxCell>
        <mxCell id="uLF2nfVqeSq94Ol26W6c-16" value="&lt;b&gt;&lt;font style=&quot;font-size: 24px;&quot;&gt;Input&lt;/font&gt;&lt;/b&gt;" style="text;html=1;align=center;verticalAlign=middle;whiteSpace=wrap;rounded=0;" parent="1" vertex="1">
          <mxGeometry x="110" y="265" width="90" height="40" as="geometry" />
        </mxCell>
        <mxCell id="uLF2nfVqeSq94Ol26W6c-22" value="" style="group" parent="1" vertex="1" connectable="0">
          <mxGeometry x="539" y="520" width="60" height="78" as="geometry" />
        </mxCell>
        <mxCell id="uLF2nfVqeSq94Ol26W6c-18" value="" style="sketch=0;outlineConnect=0;fontColor=#232F3E;gradientColor=none;fillColor=#232F3D;strokeColor=none;dashed=0;verticalLabelPosition=bottom;verticalAlign=top;align=center;html=1;fontSize=12;fontStyle=0;aspect=fixed;pointerEvents=1;shape=mxgraph.aws4.gear;" parent="uLF2nfVqeSq94Ol26W6c-22" vertex="1">
          <mxGeometry y="-8" width="28" height="28" as="geometry" />
        </mxCell>
        <mxCell id="uLF2nfVqeSq94Ol26W6c-19" value="" style="sketch=0;outlineConnect=0;fontColor=#232F3E;gradientColor=none;fillColor=#232F3D;strokeColor=none;dashed=0;verticalLabelPosition=bottom;verticalAlign=top;align=center;html=1;fontSize=12;fontStyle=0;aspect=fixed;pointerEvents=1;shape=mxgraph.aws4.gear;" parent="uLF2nfVqeSq94Ol26W6c-22" vertex="1">
          <mxGeometry x="32" y="10" width="28" height="28" as="geometry" />
        </mxCell>
        <mxCell id="uLF2nfVqeSq94Ol26W6c-20" value="&lt;span style=&quot;font-size: 24px;&quot;&gt;&lt;b&gt;Tools&lt;/b&gt;&lt;/span&gt;" style="text;html=1;align=center;verticalAlign=middle;whiteSpace=wrap;rounded=0;" parent="uLF2nfVqeSq94Ol26W6c-22" vertex="1">
          <mxGeometry y="38" width="60" height="40" as="geometry" />
        </mxCell>
        <mxCell id="uLF2nfVqeSq94Ol26W6c-26" value="" style="group" parent="1" vertex="1" connectable="0">
          <mxGeometry x="449" y="500" width="60" height="100" as="geometry" />
        </mxCell>
        <mxCell id="uLF2nfVqeSq94Ol26W6c-17" value="" style="shape=cylinder3;whiteSpace=wrap;html=1;boundedLbl=1;backgroundOutline=1;size=15;" parent="uLF2nfVqeSq94Ol26W6c-26" vertex="1">
          <mxGeometry width="60" height="60" as="geometry" />
        </mxCell>
        <mxCell id="uLF2nfVqeSq94Ol26W6c-23" value="&lt;span style=&quot;font-size: 24px;&quot;&gt;&lt;b&gt;DB&lt;/b&gt;&lt;/span&gt;" style="text;html=1;align=center;verticalAlign=middle;whiteSpace=wrap;rounded=0;" parent="uLF2nfVqeSq94Ol26W6c-26" vertex="1">
          <mxGeometry y="60" width="60" height="40" as="geometry" />
        </mxCell>
        <mxCell id="uLF2nfVqeSq94Ol26W6c-33" style="edgeStyle=orthogonalEdgeStyle;rounded=0;orthogonalLoop=1;jettySize=auto;html=1;entryX=0;entryY=0.5;entryDx=0;entryDy=0;" parent="1" source="uLF2nfVqeSq94Ol26W6c-7" target="yqtdJIzbsoDZmMNoD9rc-11" edge="1">
          <mxGeometry relative="1" as="geometry">
            <Array as="points">
              <mxPoint x="400" y="150" />
              <mxPoint x="400" y="285" />
            </Array>
          </mxGeometry>
        </mxCell>
        <mxCell id="uLF2nfVqeSq94Ol26W6c-34" style="edgeStyle=orthogonalEdgeStyle;rounded=0;orthogonalLoop=1;jettySize=auto;html=1;entryX=0;entryY=0.5;entryDx=0;entryDy=0;" parent="1" source="uLF2nfVqeSq94Ol26W6c-5" target="yqtdJIzbsoDZmMNoD9rc-11" edge="1">
          <mxGeometry relative="1" as="geometry">
            <Array as="points">
              <mxPoint x="400" y="240" />
              <mxPoint x="400" y="285" />
            </Array>
          </mxGeometry>
        </mxCell>
        <mxCell id="uLF2nfVqeSq94Ol26W6c-35" style="edgeStyle=orthogonalEdgeStyle;rounded=0;orthogonalLoop=1;jettySize=auto;html=1;entryX=0;entryY=0.5;entryDx=0;entryDy=0;" parent="1" source="yqtdJIzbsoDZmMNoD9rc-13" target="yqtdJIzbsoDZmMNoD9rc-11" edge="1">
          <mxGeometry relative="1" as="geometry">
            <mxPoint x="380" y="310" as="targetPoint" />
            <Array as="points">
              <mxPoint x="400" y="330" />
              <mxPoint x="400" y="285" />
            </Array>
          </mxGeometry>
        </mxCell>
        <mxCell id="uLF2nfVqeSq94Ol26W6c-36" style="edgeStyle=orthogonalEdgeStyle;rounded=0;orthogonalLoop=1;jettySize=auto;html=1;entryX=0;entryY=0.5;entryDx=0;entryDy=0;" parent="1" source="uLF2nfVqeSq94Ol26W6c-6" target="yqtdJIzbsoDZmMNoD9rc-11" edge="1">
          <mxGeometry relative="1" as="geometry">
            <mxPoint x="380" y="340" as="targetPoint" />
            <Array as="points">
              <mxPoint x="400" y="420" />
              <mxPoint x="400" y="285" />
            </Array>
          </mxGeometry>
        </mxCell>
        <mxCell id="DtdiOuFpiA6U2_6JIOxC-2" value="" style="endArrow=classic;html=1;rounded=0;entryX=0.855;entryY=0;entryDx=0;entryDy=4.35;entryPerimeter=0;exitX=0.383;exitY=1.005;exitDx=0;exitDy=0;exitPerimeter=0;" parent="1" source="uLF2nfVqeSq94Ol26W6c-15" target="uLF2nfVqeSq94Ol26W6c-17" edge="1">
          <mxGeometry width="50" height="50" relative="1" as="geometry">
            <mxPoint x="430" y="510" as="sourcePoint" />
            <mxPoint x="480" y="460" as="targetPoint" />
          </mxGeometry>
        </mxCell>
        <mxCell id="DtdiOuFpiA6U2_6JIOxC-3" value="" style="endArrow=classic;html=1;rounded=0;entryX=0.116;entryY=0.999;entryDx=0;entryDy=0;entryPerimeter=0;exitX=0.145;exitY=0;exitDx=0;exitDy=4.35;exitPerimeter=0;" parent="1" source="uLF2nfVqeSq94Ol26W6c-17" target="uLF2nfVqeSq94Ol26W6c-15" edge="1">
          <mxGeometry width="50" height="50" relative="1" as="geometry">
            <mxPoint x="430" y="510" as="sourcePoint" />
            <mxPoint x="480" y="460" as="targetPoint" />
          </mxGeometry>
        </mxCell>
        <mxCell id="DtdiOuFpiA6U2_6JIOxC-6" value="" style="endArrow=classic;html=1;rounded=0;entryX=0.116;entryY=0.999;entryDx=0;entryDy=0;entryPerimeter=0;exitX=0.145;exitY=0;exitDx=0;exitDy=4.35;exitPerimeter=0;" parent="1" edge="1">
          <mxGeometry width="50" height="50" relative="1" as="geometry">
            <mxPoint x="550" y="504" as="sourcePoint" />
            <mxPoint x="550" y="460" as="targetPoint" />
          </mxGeometry>
        </mxCell>
        <mxCell id="DtdiOuFpiA6U2_6JIOxC-7" value="" style="endArrow=classic;html=1;rounded=0;entryX=0.855;entryY=0;entryDx=0;entryDy=4.35;entryPerimeter=0;exitX=0.383;exitY=1.005;exitDx=0;exitDy=0;exitPerimeter=0;" parent="1" edge="1">
          <mxGeometry width="50" height="50" relative="1" as="geometry">
            <mxPoint x="580" y="460" as="sourcePoint" />
            <mxPoint x="580" y="504" as="targetPoint" />
          </mxGeometry>
        </mxCell>
        <mxCell id="rKPrhfyl8km9T8AfY8wT-1" style="edgeStyle=orthogonalEdgeStyle;rounded=0;orthogonalLoop=1;jettySize=auto;html=1;" parent="1" source="uLF2nfVqeSq94Ol26W6c-6" target="uLF2nfVqeSq94Ol26W6c-15" edge="1">
          <mxGeometry relative="1" as="geometry">
            <Array as="points">
              <mxPoint x="400" y="420" />
              <mxPoint x="400" y="430" />
            </Array>
          </mxGeometry>
        </mxCell>
      </root>
    </mxGraphModel>
  </diagram>
</mxfile>
